<?xml version="1.0" encoding="utf-8"?>
<!-- Svg Vector Icons : http://www.onlinewebfonts.com/icon -->
<!DOCTYPE svg PUBLIC "-//W3C//DTD SVG 1.1//EN" "http://www.w3.org/Graphics/SVG/1.1/DTD/svg11.dtd">
<svg version="1.1" xmlns="http://www.w3.org/2000/svg" xmlns:xlink="http://www.w3.org/1999/xlink" x="0px" y="0px" viewBox="0 0 1000 1000" enable-background="new 0 0 1000 1000" xml:space="preserve">
<metadata> Svg Vector Icons : http://www.onlinewebfonts.com/icon </metadata>
<g><g transform="translate(0.000000,511.000000) scale(0.100000,-0.100000)" fill="#F0F0F0"><path d="M3690.9,3202.4l-341.2-1023.6l-1103.4-7.3l-1105.8-4.8v-508.1v-508.1h934c738,0,931.6-7.3,924.3-29c-7.3-16.9-164.5-486.4-348.4-1040.5L2314.1-930.5H1208.2H100v-508.1v-508.1h931.6c513,0,931.6-7.3,931.6-19.4c0-9.7-152.4-471.9-336.3-1028.4l-336.3-1009h534.8h537.2L2703.7-2980l341.2,1021.1l1272.8,7.3l1270.4,4.8l-336.3-1009c-183.9-556.5-336.4-1018.7-336.4-1028.4c0-12.1,239.6-19.4,529.9-19.4h529.9l343.6,1028.4l343.6,1028.4h1098.6h1098.6v508.1v508.1h-929.2h-929.2l343.6,1035.7l346,1033.2l1103.4,7.3l1105.8,4.8v508.1v508.1h-931.6c-513,0-931.6,2.4-931.6,7.3c0,2.4,152.4,462.2,338.8,1021.1s338.8,1018.7,338.8,1023.5c0,2.4-242,2.4-537.2,0l-534.8-7.3l-341.2-1021.1L6960,2166.8H5696.9c-696.9,0-1265.5,7.3-1265.5,19.4c0,9.7,152.4,471.9,336.3,1028.4l336.3,1009h-534.8h-537.2L3690.9,3202.4z M6609.1,1133.6c0-12.1-152.4-479.1-341.2-1040.5L5926.8-930.5H4656.4c-1006.6,0-1267.9,7.3-1260.7,31.5c7.3,14.5,164.5,484,348.4,1040.5l336.3,1009h1263.1C6040.5,1150.5,6609.1,1143.2,6609.1,1133.6z"/></g></g>
</svg>