<?xml version="1.0" standalone="no"?>
<!DOCTYPE svg PUBLIC "-//W3C//DTD SVG 20010904//EN"
 "http://www.w3.org/TR/2001/REC-SVG-20010904/DTD/svg10.dtd">
<svg version="1.0" xmlns="http://www.w3.org/2000/svg"
 viewBox="0 0 1000 1000"
 preserveAspectRatio="xMidYMid meet">
<metadata>
Created by potrace 1.15, written by Peter Selinger 2001-2017
</metadata>
<g transform="translate(0.000000,1280.000000) scale(0.100000,-0.100000)"
fill="#F0F0F0" stroke="none">
<path d="M4260 12794 c-346 -31 -551 -67 -825 -146 -392 -112 -820 -319 -1150
-557 -852 -612 -1412 -1535 -1554 -2561 -37 -269 -41 -399 -41 -1493 l0 -1067
-329 0 c-286 0 -332 -2 -345 -16 -15 -14 -16 -343 -16 -3468 0 -3332 1 -3453
18 -3469 17 -16 343 -17 4484 -17 4313 0 4465 1 4481 18 16 17 17 272 17 3470
0 3124 -1 3452 -16 3466 -13 14 -59 16 -345 16 l-329 0 0 1067 c0 1094 -4
1224 -41 1493 -142 1026 -702 1949 -1554 2561 -161 117 -316 208 -530 314
-410 203 -791 315 -1255 371 -128 15 -570 27 -670 18z m645 -1084 c327 -51
579 -133 870 -284 511 -264 925 -686 1184 -1206 138 -278 209 -503 264 -835
20 -126 21 -162 24 -1272 l4 -1143 -2751 0 -2751 0 4 1143 c3 1110 4 1146 24
1272 55 332 126 557 264 835 364 731 1031 1259 1832 1449 84 20 323 58 412 65
128 10 493 -4 620 -24z"/>
</g>
</svg>
